<mxfile host="app.diagrams.net" modified="2024-04-13T02:04:33.628Z" agent="Mozilla/5.0 (Windows NT 10.0; Win64; x64) AppleWebKit/537.36 (KHTML, like Gecko) Chrome/123.0.0.0 Safari/537.36" etag="uFQ-u5Yt2Au0MWkpXBUz" version="24.2.5" type="google">
  <diagram id="C5RBs43oDa-KdzZeNtuy" name="Page-1">
    <mxGraphModel grid="1" page="1" gridSize="10" guides="1" tooltips="1" connect="1" arrows="1" fold="1" pageScale="1" pageWidth="827" pageHeight="1169" math="0" shadow="0">
      <root>
        <mxCell id="WIyWlLk6GJQsqaUBKTNV-0" />
        <mxCell id="WIyWlLk6GJQsqaUBKTNV-1" parent="WIyWlLk6GJQsqaUBKTNV-0" />
        <mxCell id="Lt1MlF0MmN3UqAzJxQYF-59" style="edgeStyle=orthogonalEdgeStyle;rounded=0;orthogonalLoop=1;jettySize=auto;html=1;exitX=0.5;exitY=0;exitDx=0;exitDy=0;entryX=0.5;entryY=1;entryDx=0;entryDy=0;endArrow=diamond;endFill=1;endSize=20;" edge="1" parent="WIyWlLk6GJQsqaUBKTNV-1" source="Lt1MlF0MmN3UqAzJxQYF-4" target="Lt1MlF0MmN3UqAzJxQYF-49">
          <mxGeometry relative="1" as="geometry" />
        </mxCell>
        <mxCell id="Lt1MlF0MmN3UqAzJxQYF-4" value="Heroe" style="swimlane;fontStyle=0;align=center;verticalAlign=top;childLayout=stackLayout;horizontal=1;startSize=26;horizontalStack=0;resizeParent=1;resizeLast=0;collapsible=1;marginBottom=0;rounded=0;shadow=0;strokeWidth=1;" vertex="1" parent="WIyWlLk6GJQsqaUBKTNV-1">
          <mxGeometry x="390" y="240" width="200" height="520" as="geometry">
            <mxRectangle x="550" y="140" width="160" height="26" as="alternateBounds" />
          </mxGeometry>
        </mxCell>
        <mxCell id="Lt1MlF0MmN3UqAzJxQYF-5" value="- posX: int&#xa;- posY: int&#xa;- width: int&#xa;- height: int&#xa;- frame: binary file" style="text;align=left;verticalAlign=top;spacingLeft=4;spacingRight=4;overflow=hidden;rotatable=0;points=[[0,0.5],[1,0.5]];portConstraint=eastwest;" vertex="1" parent="Lt1MlF0MmN3UqAzJxQYF-4">
          <mxGeometry y="26" width="200" height="74" as="geometry" />
        </mxCell>
        <mxCell id="Lt1MlF0MmN3UqAzJxQYF-10" value="" style="line;html=1;strokeWidth=1;align=left;verticalAlign=middle;spacingTop=-1;spacingLeft=3;spacingRight=3;rotatable=0;labelPosition=right;points=[];portConstraint=eastwest;" vertex="1" parent="Lt1MlF0MmN3UqAzJxQYF-4">
          <mxGeometry y="100" width="200" height="8" as="geometry" />
        </mxCell>
        <mxCell id="Lt1MlF0MmN3UqAzJxQYF-11" value="+ Correr() : void" style="text;align=left;verticalAlign=top;spacingLeft=4;spacingRight=4;overflow=hidden;rotatable=0;points=[[0,0.5],[1,0.5]];portConstraint=eastwest;" vertex="1" parent="Lt1MlF0MmN3UqAzJxQYF-4">
          <mxGeometry y="108" width="200" height="26" as="geometry" />
        </mxCell>
        <mxCell id="Lt1MlF0MmN3UqAzJxQYF-12" value="+ Caminar() : void" style="text;align=left;verticalAlign=top;spacingLeft=4;spacingRight=4;overflow=hidden;rotatable=0;points=[[0,0.5],[1,0.5]];portConstraint=eastwest;" vertex="1" parent="Lt1MlF0MmN3UqAzJxQYF-4">
          <mxGeometry y="134" width="200" height="26" as="geometry" />
        </mxCell>
        <mxCell id="Lt1MlF0MmN3UqAzJxQYF-13" value="+ Saltar() : void" style="text;align=left;verticalAlign=top;spacingLeft=4;spacingRight=4;overflow=hidden;rotatable=0;points=[[0,0.5],[1,0.5]];portConstraint=eastwest;" vertex="1" parent="Lt1MlF0MmN3UqAzJxQYF-4">
          <mxGeometry y="160" width="200" height="24" as="geometry" />
        </mxCell>
        <mxCell id="Lt1MlF0MmN3UqAzJxQYF-14" value="+ Atacar() : void" style="text;align=left;verticalAlign=top;spacingLeft=4;spacingRight=4;overflow=hidden;rotatable=0;points=[[0,0.5],[1,0.5]];portConstraint=eastwest;" vertex="1" parent="Lt1MlF0MmN3UqAzJxQYF-4">
          <mxGeometry y="184" width="200" height="24" as="geometry" />
        </mxCell>
        <mxCell id="Lt1MlF0MmN3UqAzJxQYF-15" value="+ Reposar() : void" style="text;align=left;verticalAlign=top;spacingLeft=4;spacingRight=4;overflow=hidden;rotatable=0;points=[[0,0.5],[1,0.5]];portConstraint=eastwest;" vertex="1" parent="Lt1MlF0MmN3UqAzJxQYF-4">
          <mxGeometry y="208" width="200" height="24" as="geometry" />
        </mxCell>
        <mxCell id="Lt1MlF0MmN3UqAzJxQYF-38" value="+ Visualizarse() : void" style="text;align=left;verticalAlign=top;spacingLeft=4;spacingRight=4;overflow=hidden;rotatable=0;points=[[0,0.5],[1,0.5]];portConstraint=eastwest;" vertex="1" parent="Lt1MlF0MmN3UqAzJxQYF-4">
          <mxGeometry y="232" width="200" height="24" as="geometry" />
        </mxCell>
        <mxCell id="Lt1MlF0MmN3UqAzJxQYF-85" value="+ getPosX(): int&#xa;" style="text;align=left;verticalAlign=top;spacingLeft=4;spacingRight=4;overflow=hidden;rotatable=0;points=[[0,0.5],[1,0.5]];portConstraint=eastwest;" vertex="1" parent="Lt1MlF0MmN3UqAzJxQYF-4">
          <mxGeometry y="256" width="200" height="24" as="geometry" />
        </mxCell>
        <mxCell id="Lt1MlF0MmN3UqAzJxQYF-86" value="+ getPosY(): int&#xa;" style="text;align=left;verticalAlign=top;spacingLeft=4;spacingRight=4;overflow=hidden;rotatable=0;points=[[0,0.5],[1,0.5]];portConstraint=eastwest;" vertex="1" parent="Lt1MlF0MmN3UqAzJxQYF-4">
          <mxGeometry y="280" width="200" height="24" as="geometry" />
        </mxCell>
        <mxCell id="Lt1MlF0MmN3UqAzJxQYF-82" value="+ getWidth(): int&#xa;" style="text;align=left;verticalAlign=top;spacingLeft=4;spacingRight=4;overflow=hidden;rotatable=0;points=[[0,0.5],[1,0.5]];portConstraint=eastwest;" vertex="1" parent="Lt1MlF0MmN3UqAzJxQYF-4">
          <mxGeometry y="304" width="200" height="24" as="geometry" />
        </mxCell>
        <mxCell id="Lt1MlF0MmN3UqAzJxQYF-83" value="+ getHeight(): int&#xa;" style="text;align=left;verticalAlign=top;spacingLeft=4;spacingRight=4;overflow=hidden;rotatable=0;points=[[0,0.5],[1,0.5]];portConstraint=eastwest;" vertex="1" parent="Lt1MlF0MmN3UqAzJxQYF-4">
          <mxGeometry y="328" width="200" height="24" as="geometry" />
        </mxCell>
        <mxCell id="Lt1MlF0MmN3UqAzJxQYF-84" value="+ getFrame(): imagen&#xa;" style="text;align=left;verticalAlign=top;spacingLeft=4;spacingRight=4;overflow=hidden;rotatable=0;points=[[0,0.5],[1,0.5]];portConstraint=eastwest;" vertex="1" parent="Lt1MlF0MmN3UqAzJxQYF-4">
          <mxGeometry y="352" width="200" height="24" as="geometry" />
        </mxCell>
        <mxCell id="nIH12ZR1uH0hhY6TjGyw-30" value="+ setPosX(posX: int): void&#xa;" style="text;align=left;verticalAlign=top;spacingLeft=4;spacingRight=4;overflow=hidden;rotatable=0;points=[[0,0.5],[1,0.5]];portConstraint=eastwest;" vertex="1" parent="Lt1MlF0MmN3UqAzJxQYF-4">
          <mxGeometry y="376" width="200" height="24" as="geometry" />
        </mxCell>
        <mxCell id="nIH12ZR1uH0hhY6TjGyw-31" value="+ setPosY(posY: int): void&#xa;" style="text;align=left;verticalAlign=top;spacingLeft=4;spacingRight=4;overflow=hidden;rotatable=0;points=[[0,0.5],[1,0.5]];portConstraint=eastwest;" vertex="1" parent="Lt1MlF0MmN3UqAzJxQYF-4">
          <mxGeometry y="400" width="200" height="24" as="geometry" />
        </mxCell>
        <mxCell id="nIH12ZR1uH0hhY6TjGyw-32" value="+ setWidth(width: int): void" style="text;align=left;verticalAlign=top;spacingLeft=4;spacingRight=4;overflow=hidden;rotatable=0;points=[[0,0.5],[1,0.5]];portConstraint=eastwest;" vertex="1" parent="Lt1MlF0MmN3UqAzJxQYF-4">
          <mxGeometry y="424" width="200" height="24" as="geometry" />
        </mxCell>
        <mxCell id="nIH12ZR1uH0hhY6TjGyw-33" value="+ setHeight(height: int): void&#xa;&#xa;" style="text;align=left;verticalAlign=top;spacingLeft=4;spacingRight=4;overflow=hidden;rotatable=0;points=[[0,0.5],[1,0.5]];portConstraint=eastwest;" vertex="1" parent="Lt1MlF0MmN3UqAzJxQYF-4">
          <mxGeometry y="448" width="200" height="24" as="geometry" />
        </mxCell>
        <mxCell id="nIH12ZR1uH0hhY6TjGyw-34" value="+ setFrame(frame: binary file): void&#xa;" style="text;align=left;verticalAlign=top;spacingLeft=4;spacingRight=4;overflow=hidden;rotatable=0;points=[[0,0.5],[1,0.5]];portConstraint=eastwest;" vertex="1" parent="Lt1MlF0MmN3UqAzJxQYF-4">
          <mxGeometry y="472" width="200" height="24" as="geometry" />
        </mxCell>
        <mxCell id="Lt1MlF0MmN3UqAzJxQYF-27" style="edgeStyle=orthogonalEdgeStyle;rounded=0;orthogonalLoop=1;jettySize=auto;html=1;exitX=0.5;exitY=0;exitDx=0;exitDy=0;entryX=0.5;entryY=1;entryDx=0;entryDy=0;endArrow=block;endFill=0;endSize=20;" edge="1" parent="WIyWlLk6GJQsqaUBKTNV-1" source="Lt1MlF0MmN3UqAzJxQYF-28" target="Lt1MlF0MmN3UqAzJxQYF-4">
          <mxGeometry relative="1" as="geometry">
            <mxPoint x="469.99999999999955" y="560" as="sourcePoint" />
          </mxGeometry>
        </mxCell>
        <mxCell id="Lt1MlF0MmN3UqAzJxQYF-61" style="edgeStyle=orthogonalEdgeStyle;rounded=0;orthogonalLoop=1;jettySize=auto;html=1;exitX=0.25;exitY=0;exitDx=0;exitDy=0;endArrow=none;endFill=0;" edge="1" parent="WIyWlLk6GJQsqaUBKTNV-1" source="Lt1MlF0MmN3UqAzJxQYF-28">
          <mxGeometry relative="1" as="geometry">
            <mxPoint x="470" y="200" as="targetPoint" />
            <Array as="points">
              <mxPoint x="450" y="790" />
              <mxPoint x="370" y="790" />
              <mxPoint x="370" y="200" />
            </Array>
          </mxGeometry>
        </mxCell>
        <mxCell id="Lt1MlF0MmN3UqAzJxQYF-28" value="Enemigo" style="swimlane;fontStyle=0;align=center;verticalAlign=top;childLayout=stackLayout;horizontal=1;startSize=26;horizontalStack=0;resizeParent=1;resizeLast=0;collapsible=1;marginBottom=0;rounded=0;shadow=0;strokeWidth=1;" vertex="1" parent="WIyWlLk6GJQsqaUBKTNV-1">
          <mxGeometry x="410" y="800" width="160" height="290" as="geometry">
            <mxRectangle x="550" y="140" width="160" height="26" as="alternateBounds" />
          </mxGeometry>
        </mxCell>
        <mxCell id="Lt1MlF0MmN3UqAzJxQYF-29" value="- posX&#xa;- posy&#xa;- width&#xa;- height&#xa;- frame" style="text;align=left;verticalAlign=top;spacingLeft=4;spacingRight=4;overflow=hidden;rotatable=0;points=[[0,0.5],[1,0.5]];portConstraint=eastwest;" vertex="1" parent="Lt1MlF0MmN3UqAzJxQYF-28">
          <mxGeometry y="26" width="160" height="74" as="geometry" />
        </mxCell>
        <mxCell id="Lt1MlF0MmN3UqAzJxQYF-30" value="" style="line;html=1;strokeWidth=1;align=left;verticalAlign=middle;spacingTop=-1;spacingLeft=3;spacingRight=3;rotatable=0;labelPosition=right;points=[];portConstraint=eastwest;" vertex="1" parent="Lt1MlF0MmN3UqAzJxQYF-28">
          <mxGeometry y="100" width="160" height="8" as="geometry" />
        </mxCell>
        <mxCell id="Lt1MlF0MmN3UqAzJxQYF-31" value="+ Correr() : void" style="text;align=left;verticalAlign=top;spacingLeft=4;spacingRight=4;overflow=hidden;rotatable=0;points=[[0,0.5],[1,0.5]];portConstraint=eastwest;" vertex="1" parent="Lt1MlF0MmN3UqAzJxQYF-28">
          <mxGeometry y="108" width="160" height="26" as="geometry" />
        </mxCell>
        <mxCell id="Lt1MlF0MmN3UqAzJxQYF-32" value="+ Caminar() : void" style="text;align=left;verticalAlign=top;spacingLeft=4;spacingRight=4;overflow=hidden;rotatable=0;points=[[0,0.5],[1,0.5]];portConstraint=eastwest;" vertex="1" parent="Lt1MlF0MmN3UqAzJxQYF-28">
          <mxGeometry y="134" width="160" height="26" as="geometry" />
        </mxCell>
        <mxCell id="Lt1MlF0MmN3UqAzJxQYF-33" value="+ Saltar() : void" style="text;align=left;verticalAlign=top;spacingLeft=4;spacingRight=4;overflow=hidden;rotatable=0;points=[[0,0.5],[1,0.5]];portConstraint=eastwest;" vertex="1" parent="Lt1MlF0MmN3UqAzJxQYF-28">
          <mxGeometry y="160" width="160" height="24" as="geometry" />
        </mxCell>
        <mxCell id="Lt1MlF0MmN3UqAzJxQYF-34" value="+ Atacar() : void" style="text;align=left;verticalAlign=top;spacingLeft=4;spacingRight=4;overflow=hidden;rotatable=0;points=[[0,0.5],[1,0.5]];portConstraint=eastwest;" vertex="1" parent="Lt1MlF0MmN3UqAzJxQYF-28">
          <mxGeometry y="184" width="160" height="24" as="geometry" />
        </mxCell>
        <mxCell id="Lt1MlF0MmN3UqAzJxQYF-35" value="+ Reposar() : void" style="text;align=left;verticalAlign=top;spacingLeft=4;spacingRight=4;overflow=hidden;rotatable=0;points=[[0,0.5],[1,0.5]];portConstraint=eastwest;" vertex="1" parent="Lt1MlF0MmN3UqAzJxQYF-28">
          <mxGeometry y="208" width="160" height="24" as="geometry" />
        </mxCell>
        <mxCell id="Lt1MlF0MmN3UqAzJxQYF-36" value="+ Agacharse() : void" style="text;align=left;verticalAlign=top;spacingLeft=4;spacingRight=4;overflow=hidden;rotatable=0;points=[[0,0.5],[1,0.5]];portConstraint=eastwest;" vertex="1" parent="Lt1MlF0MmN3UqAzJxQYF-28">
          <mxGeometry y="232" width="160" height="24" as="geometry" />
        </mxCell>
        <mxCell id="Lt1MlF0MmN3UqAzJxQYF-37" value="+ Huir() : void" style="text;align=left;verticalAlign=top;spacingLeft=4;spacingRight=4;overflow=hidden;rotatable=0;points=[[0,0.5],[1,0.5]];portConstraint=eastwest;" vertex="1" parent="Lt1MlF0MmN3UqAzJxQYF-28">
          <mxGeometry y="256" width="160" height="24" as="geometry" />
        </mxCell>
        <mxCell id="Lt1MlF0MmN3UqAzJxQYF-63" style="edgeStyle=orthogonalEdgeStyle;rounded=0;orthogonalLoop=1;jettySize=auto;html=1;exitX=0.5;exitY=0;exitDx=0;exitDy=0;endArrow=none;endFill=0;" edge="1" parent="WIyWlLk6GJQsqaUBKTNV-1" source="Lt1MlF0MmN3UqAzJxQYF-40">
          <mxGeometry relative="1" as="geometry">
            <mxPoint x="400" y="200" as="targetPoint" />
            <Array as="points">
              <mxPoint x="670" y="200" />
            </Array>
          </mxGeometry>
        </mxCell>
        <mxCell id="Lt1MlF0MmN3UqAzJxQYF-40" value="Props" style="swimlane;fontStyle=0;align=center;verticalAlign=top;childLayout=stackLayout;horizontal=1;startSize=26;horizontalStack=0;resizeParent=1;resizeLast=0;collapsible=1;marginBottom=0;rounded=0;shadow=0;strokeWidth=1;" vertex="1" parent="WIyWlLk6GJQsqaUBKTNV-1">
          <mxGeometry x="620" y="220" width="230" height="320" as="geometry">
            <mxRectangle x="550" y="140" width="160" height="26" as="alternateBounds" />
          </mxGeometry>
        </mxCell>
        <mxCell id="Lt1MlF0MmN3UqAzJxQYF-41" value="- imagen: binary file" style="text;align=left;verticalAlign=top;spacingLeft=4;spacingRight=4;overflow=hidden;rotatable=0;points=[[0,0.5],[1,0.5]];portConstraint=eastwest;" vertex="1" parent="Lt1MlF0MmN3UqAzJxQYF-40">
          <mxGeometry y="26" width="230" height="24" as="geometry" />
        </mxCell>
        <mxCell id="Lt1MlF0MmN3UqAzJxQYF-75" value="- width: int" style="text;align=left;verticalAlign=top;spacingLeft=4;spacingRight=4;overflow=hidden;rotatable=0;points=[[0,0.5],[1,0.5]];portConstraint=eastwest;" vertex="1" parent="Lt1MlF0MmN3UqAzJxQYF-40">
          <mxGeometry y="50" width="230" height="24" as="geometry" />
        </mxCell>
        <mxCell id="Lt1MlF0MmN3UqAzJxQYF-76" value="- height: int" style="text;align=left;verticalAlign=top;spacingLeft=4;spacingRight=4;overflow=hidden;rotatable=0;points=[[0,0.5],[1,0.5]];portConstraint=eastwest;" vertex="1" parent="Lt1MlF0MmN3UqAzJxQYF-40">
          <mxGeometry y="74" width="230" height="24" as="geometry" />
        </mxCell>
        <mxCell id="Lt1MlF0MmN3UqAzJxQYF-42" value="" style="line;html=1;strokeWidth=1;align=left;verticalAlign=middle;spacingTop=-1;spacingLeft=3;spacingRight=3;rotatable=0;labelPosition=right;points=[];portConstraint=eastwest;" vertex="1" parent="Lt1MlF0MmN3UqAzJxQYF-40">
          <mxGeometry y="98" width="230" height="8" as="geometry" />
        </mxCell>
        <mxCell id="Lt1MlF0MmN3UqAzJxQYF-48" value="+ Visualizarse() : void" style="text;align=left;verticalAlign=top;spacingLeft=4;spacingRight=4;overflow=hidden;rotatable=0;points=[[0,0.5],[1,0.5]];portConstraint=eastwest;" vertex="1" parent="Lt1MlF0MmN3UqAzJxQYF-40">
          <mxGeometry y="106" width="230" height="22" as="geometry" />
        </mxCell>
        <mxCell id="nIH12ZR1uH0hhY6TjGyw-0" value="+ verColission(): bool" style="text;align=left;verticalAlign=top;spacingLeft=4;spacingRight=4;overflow=hidden;rotatable=0;points=[[0,0.5],[1,0.5]];portConstraint=eastwest;" vertex="1" parent="Lt1MlF0MmN3UqAzJxQYF-40">
          <mxGeometry y="128" width="230" height="22" as="geometry" />
        </mxCell>
        <mxCell id="nIH12ZR1uH0hhY6TjGyw-17" value="+ calcularHitbox(width: int, height: int): int&#xa;" style="text;align=left;verticalAlign=top;spacingLeft=4;spacingRight=4;overflow=hidden;rotatable=0;points=[[0,0.5],[1,0.5]];portConstraint=eastwest;" vertex="1" parent="Lt1MlF0MmN3UqAzJxQYF-40">
          <mxGeometry y="150" width="230" height="24" as="geometry" />
        </mxCell>
        <mxCell id="Lt1MlF0MmN3UqAzJxQYF-77" value="+ getImagen(): imagen" style="text;align=left;verticalAlign=top;spacingLeft=4;spacingRight=4;overflow=hidden;rotatable=0;points=[[0,0.5],[1,0.5]];portConstraint=eastwest;" vertex="1" parent="Lt1MlF0MmN3UqAzJxQYF-40">
          <mxGeometry y="174" width="230" height="24" as="geometry" />
        </mxCell>
        <mxCell id="Lt1MlF0MmN3UqAzJxQYF-78" value="+ getWidth(): int" style="text;align=left;verticalAlign=top;spacingLeft=4;spacingRight=4;overflow=hidden;rotatable=0;points=[[0,0.5],[1,0.5]];portConstraint=eastwest;" vertex="1" parent="Lt1MlF0MmN3UqAzJxQYF-40">
          <mxGeometry y="198" width="230" height="24" as="geometry" />
        </mxCell>
        <mxCell id="Lt1MlF0MmN3UqAzJxQYF-79" value="+ getHeight(): int" style="text;align=left;verticalAlign=top;spacingLeft=4;spacingRight=4;overflow=hidden;rotatable=0;points=[[0,0.5],[1,0.5]];portConstraint=eastwest;" vertex="1" parent="Lt1MlF0MmN3UqAzJxQYF-40">
          <mxGeometry y="222" width="230" height="24" as="geometry" />
        </mxCell>
        <mxCell id="Lt1MlF0MmN3UqAzJxQYF-74" value="+ setImagen(imagen: binary file): void" style="text;align=left;verticalAlign=top;spacingLeft=4;spacingRight=4;overflow=hidden;rotatable=0;points=[[0,0.5],[1,0.5]];portConstraint=eastwest;" vertex="1" parent="Lt1MlF0MmN3UqAzJxQYF-40">
          <mxGeometry y="246" width="230" height="24" as="geometry" />
        </mxCell>
        <mxCell id="Lt1MlF0MmN3UqAzJxQYF-80" value="+ setWidth(width: int): void" style="text;align=left;verticalAlign=top;spacingLeft=4;spacingRight=4;overflow=hidden;rotatable=0;points=[[0,0.5],[1,0.5]];portConstraint=eastwest;" vertex="1" parent="Lt1MlF0MmN3UqAzJxQYF-40">
          <mxGeometry y="270" width="230" height="24" as="geometry" />
        </mxCell>
        <mxCell id="Lt1MlF0MmN3UqAzJxQYF-81" value="+ setHeight(height: int): void" style="text;align=left;verticalAlign=top;spacingLeft=4;spacingRight=4;overflow=hidden;rotatable=0;points=[[0,0.5],[1,0.5]];portConstraint=eastwest;" vertex="1" parent="Lt1MlF0MmN3UqAzJxQYF-40">
          <mxGeometry y="294" width="230" height="24" as="geometry" />
        </mxCell>
        <mxCell id="Lt1MlF0MmN3UqAzJxQYF-49" value="Ventana" style="swimlane;fontStyle=0;align=center;verticalAlign=top;childLayout=stackLayout;horizontal=1;startSize=26;horizontalStack=0;resizeParent=1;resizeLast=0;collapsible=1;marginBottom=0;rounded=0;shadow=0;strokeWidth=1;" vertex="1" parent="WIyWlLk6GJQsqaUBKTNV-1">
          <mxGeometry x="320" y="10" width="160" height="70" as="geometry">
            <mxRectangle x="550" y="140" width="160" height="26" as="alternateBounds" />
          </mxGeometry>
        </mxCell>
        <mxCell id="Lt1MlF0MmN3UqAzJxQYF-51" value="" style="line;html=1;strokeWidth=1;align=left;verticalAlign=middle;spacingTop=-1;spacingLeft=3;spacingRight=3;rotatable=0;labelPosition=right;points=[];portConstraint=eastwest;" vertex="1" parent="Lt1MlF0MmN3UqAzJxQYF-49">
          <mxGeometry y="26" width="160" height="8" as="geometry" />
        </mxCell>
        <mxCell id="Lt1MlF0MmN3UqAzJxQYF-52" value="+ visualizarse() : void" style="text;align=left;verticalAlign=top;spacingLeft=4;spacingRight=4;overflow=hidden;rotatable=0;points=[[0,0.5],[1,0.5]];portConstraint=eastwest;" vertex="1" parent="Lt1MlF0MmN3UqAzJxQYF-49">
          <mxGeometry y="34" width="160" height="24" as="geometry" />
        </mxCell>
        <mxCell id="Lt1MlF0MmN3UqAzJxQYF-62" style="edgeStyle=orthogonalEdgeStyle;rounded=0;orthogonalLoop=1;jettySize=auto;html=1;exitX=0.5;exitY=0;exitDx=0;exitDy=0;endArrow=none;endFill=0;" edge="1" parent="WIyWlLk6GJQsqaUBKTNV-1" source="Lt1MlF0MmN3UqAzJxQYF-53">
          <mxGeometry relative="1" as="geometry">
            <mxPoint x="370" y="200" as="targetPoint" />
            <Array as="points">
              <mxPoint x="190" y="200" />
            </Array>
          </mxGeometry>
        </mxCell>
        <mxCell id="Lt1MlF0MmN3UqAzJxQYF-53" value="Clasificaciones" style="swimlane;fontStyle=0;align=center;verticalAlign=top;childLayout=stackLayout;horizontal=1;startSize=26;horizontalStack=0;resizeParent=1;resizeLast=0;collapsible=1;marginBottom=0;rounded=0;shadow=0;strokeWidth=1;" vertex="1" parent="WIyWlLk6GJQsqaUBKTNV-1">
          <mxGeometry x="50" y="240" width="280" height="140" as="geometry">
            <mxRectangle x="550" y="140" width="160" height="26" as="alternateBounds" />
          </mxGeometry>
        </mxCell>
        <mxCell id="Lt1MlF0MmN3UqAzJxQYF-56" value="- jugadores: array&lt;Jugador&gt;" style="text;align=left;verticalAlign=top;spacingLeft=4;spacingRight=4;overflow=hidden;rotatable=0;points=[[0,0.5],[1,0.5]];portConstraint=eastwest;" vertex="1" parent="Lt1MlF0MmN3UqAzJxQYF-53">
          <mxGeometry y="26" width="280" height="24" as="geometry" />
        </mxCell>
        <mxCell id="Lt1MlF0MmN3UqAzJxQYF-55" value="" style="line;html=1;strokeWidth=1;align=left;verticalAlign=middle;spacingTop=-1;spacingLeft=3;spacingRight=3;rotatable=0;labelPosition=right;points=[];portConstraint=eastwest;" vertex="1" parent="Lt1MlF0MmN3UqAzJxQYF-53">
          <mxGeometry y="50" width="280" height="8" as="geometry" />
        </mxCell>
        <mxCell id="Lt1MlF0MmN3UqAzJxQYF-58" value="+ Visualizarse() : void" style="text;align=left;verticalAlign=top;spacingLeft=4;spacingRight=4;overflow=hidden;rotatable=0;points=[[0,0.5],[1,0.5]];portConstraint=eastwest;" vertex="1" parent="Lt1MlF0MmN3UqAzJxQYF-53">
          <mxGeometry y="58" width="280" height="22" as="geometry" />
        </mxCell>
        <mxCell id="Lt1MlF0MmN3UqAzJxQYF-72" value="+getJugadores(): array&lt;Jugador&gt;" style="text;align=left;verticalAlign=top;spacingLeft=4;spacingRight=4;overflow=hidden;rotatable=0;points=[[0,0.5],[1,0.5]];portConstraint=eastwest;" vertex="1" parent="Lt1MlF0MmN3UqAzJxQYF-53">
          <mxGeometry y="80" width="280" height="24" as="geometry" />
        </mxCell>
        <mxCell id="Lt1MlF0MmN3UqAzJxQYF-71" value="+setJugadores(jugadores: array&lt;Jugador&gt;): void" style="text;align=left;verticalAlign=top;spacingLeft=4;spacingRight=4;overflow=hidden;rotatable=0;points=[[0,0.5],[1,0.5]];portConstraint=eastwest;" vertex="1" parent="Lt1MlF0MmN3UqAzJxQYF-53">
          <mxGeometry y="104" width="280" height="24" as="geometry" />
        </mxCell>
        <mxCell id="Lt1MlF0MmN3UqAzJxQYF-70" style="edgeStyle=orthogonalEdgeStyle;rounded=0;orthogonalLoop=1;jettySize=auto;html=1;exitX=0.5;exitY=0;exitDx=0;exitDy=0;entryX=0.5;entryY=1;entryDx=0;entryDy=0;endArrow=diamond;endFill=0;endSize=20;startArrow=none;startFill=0;" edge="1" parent="WIyWlLk6GJQsqaUBKTNV-1" source="Lt1MlF0MmN3UqAzJxQYF-64" target="Lt1MlF0MmN3UqAzJxQYF-53">
          <mxGeometry relative="1" as="geometry" />
        </mxCell>
        <mxCell id="Lt1MlF0MmN3UqAzJxQYF-64" value="Jugador" style="swimlane;fontStyle=0;align=center;verticalAlign=top;childLayout=stackLayout;horizontal=1;startSize=26;horizontalStack=0;resizeParent=1;resizeLast=0;collapsible=1;marginBottom=0;rounded=0;shadow=0;strokeWidth=1;" vertex="1" parent="WIyWlLk6GJQsqaUBKTNV-1">
          <mxGeometry x="50" y="450" width="280" height="190" as="geometry">
            <mxRectangle x="50" y="450" width="160" height="26" as="alternateBounds" />
          </mxGeometry>
        </mxCell>
        <mxCell id="nIH12ZR1uH0hhY6TjGyw-35" value="- score: int&#xa;" style="text;align=left;verticalAlign=top;spacingLeft=4;spacingRight=4;overflow=hidden;rotatable=0;points=[[0,0.5],[1,0.5]];portConstraint=eastwest;" vertex="1" parent="Lt1MlF0MmN3UqAzJxQYF-64">
          <mxGeometry y="26" width="280" height="24" as="geometry" />
        </mxCell>
        <mxCell id="nIH12ZR1uH0hhY6TjGyw-37" value="- name: string" style="text;align=left;verticalAlign=top;spacingLeft=4;spacingRight=4;overflow=hidden;rotatable=0;points=[[0,0.5],[1,0.5]];portConstraint=eastwest;" vertex="1" parent="Lt1MlF0MmN3UqAzJxQYF-64">
          <mxGeometry y="50" width="280" height="24" as="geometry" />
        </mxCell>
        <mxCell id="Lt1MlF0MmN3UqAzJxQYF-66" value="" style="line;html=1;strokeWidth=1;align=left;verticalAlign=middle;spacingTop=-1;spacingLeft=3;spacingRight=3;rotatable=0;labelPosition=right;points=[];portConstraint=eastwest;" vertex="1" parent="Lt1MlF0MmN3UqAzJxQYF-64">
          <mxGeometry y="74" width="280" height="16" as="geometry" />
        </mxCell>
        <mxCell id="Lt1MlF0MmN3UqAzJxQYF-87" value="+ getScore(): int" style="text;align=left;verticalAlign=top;spacingLeft=4;spacingRight=4;overflow=hidden;rotatable=0;points=[[0,0.5],[1,0.5]];portConstraint=eastwest;" vertex="1" parent="Lt1MlF0MmN3UqAzJxQYF-64">
          <mxGeometry y="90" width="280" height="20" as="geometry" />
        </mxCell>
        <mxCell id="nIH12ZR1uH0hhY6TjGyw-39" value="+ getName(): string&#xa;" style="text;align=left;verticalAlign=top;spacingLeft=4;spacingRight=4;overflow=hidden;rotatable=0;points=[[0,0.5],[1,0.5]];portConstraint=eastwest;" vertex="1" parent="Lt1MlF0MmN3UqAzJxQYF-64">
          <mxGeometry y="110" width="280" height="24" as="geometry" />
        </mxCell>
        <mxCell id="nIH12ZR1uH0hhY6TjGyw-40" value="+ setScore(score: int): void&#xa;" style="text;align=left;verticalAlign=top;spacingLeft=4;spacingRight=4;overflow=hidden;rotatable=0;points=[[0,0.5],[1,0.5]];portConstraint=eastwest;" vertex="1" parent="Lt1MlF0MmN3UqAzJxQYF-64">
          <mxGeometry y="134" width="280" height="24" as="geometry" />
        </mxCell>
        <mxCell id="nIH12ZR1uH0hhY6TjGyw-41" value="+ setName(name: string): void&#xa;&#xa;" style="text;align=left;verticalAlign=top;spacingLeft=4;spacingRight=4;overflow=hidden;rotatable=0;points=[[0,0.5],[1,0.5]];portConstraint=eastwest;" vertex="1" parent="Lt1MlF0MmN3UqAzJxQYF-64">
          <mxGeometry y="158" width="280" height="24" as="geometry" />
        </mxCell>
      </root>
    </mxGraphModel>
  </diagram>
</mxfile>
